<?xml version="1.0" encoding="utf-8"?>
<!-- Generator: Adobe Illustrator 24.1.1, SVG Export Plug-In . SVG Version: 6.00 Build 0)  -->
<svg version="1.1" id="Capa_1" xmlns="http://www.w3.org/2000/svg" xmlns:xlink="http://www.w3.org/1999/xlink" x="0px" y="0px"
	 viewBox="0 0 1366.1 176.7" style="enable-background:new 0 0 1366.1 176.7;" xml:space="preserve">
<style type="text/css">
	.st0{opacity:0.4;fill:#161E2E;enable-background:new    ;}
	.st1{opacity:0.4;fill:#E5E5E5;enable-background:new    ;}
	.st2{opacity:0.4;fill:#BFBFBF;enable-background:new    ;}
	.st3{opacity:0.4;fill:#FCFDFA;enable-background:new    ;}
	.st4{opacity:0.4;fill:#7F9E5A;enable-background:new    ;}
	.st5{opacity:0.4;fill:#FDFDFC;enable-background:new    ;}
	.st6{opacity:0.4;fill:#9FBD79;enable-background:new    ;}
	.st7{opacity:0.4;fill:#608932;enable-background:new    ;}
	.st8{opacity:0.4;fill:#8CC53E;enable-background:new    ;}
	.st9{opacity:0.4;fill:#5A8629;enable-background:new    ;}
	.st10{opacity:0.4;fill:#6D9C2F;enable-background:new    ;}
	.st11{opacity:0.4;fill:#6C9F2F;enable-background:new    ;}
	.st12{opacity:0.4;fill:#A8C786;enable-background:new    ;}
	.st13{opacity:0.4;fill:#FEFEFE;enable-background:new    ;}
</style>
<path class="st0" d="M654.1,92.6l2.1,0.4l8.6,1.9l2.1,0.4l22,4.6l2.1,0.3l4.3,0.9l2.1,0.4l11.5,2.1l2,0.4l4.3,0.9h0.1l9.5,1.5
	l3.2,0.5l6.2,1c0.4,0,0.7,0.1,1.1,0.1l1.5,0.3l4.6,0.7l13.9,2.3l2.5,0.4c-6.7,1.4-13.1,3.1-20,4.3c-12.3,2.1-24.8,3.9-37.3,5.9
	l-8.8-1.2c-27.7-3.9-55.2-7.9-83-11.6c-29.7-3.9-59.4-7.8-89.4-11.3c-31-3.6-62.4-6.6-93.6-9.9L403.5,85l-0.8,1.1l23.1,2.7
	c13.3,1.7,26.7,3.2,39.8,5.1c22.3,3.3,44.4,6.7,66.4,10.2c24.1,3.8,48.2,7.8,72.1,11.9c20.2,3.5,42.5,7.4,62.6,11
	c-0.7,0.4-3.6,0.9-4.5,1c-13.4,1.5-26.9,2.9-40.3,4.3l-7.8-1.5c-23.7-4.8-47.1-9.8-71.3-14.2c-48.5-8.7-97.4-17.1-147.6-24.1
	c-42.5-5.9-85.1-11.4-128.9-15.3c-18.3-1.7-36.9-2.8-55.4-4.2l-2.8-0.5l-5.2-0.1l-4.1-0.5l-8-0.5l-2.7-0.1l-31.9-1.2l-4.1-0.5
	l-21.3-0.5H128h-12c-3.8-1.5-8.1-2.7-11.3-4.4c-19.4-10.1-39.6-20-57.4-30.5C33.1,25.7,21.7,16.4,9.1,7.5c-3-2.1-6-4.2-9.1-6.4V0
	l17,0.9l8.8,0.5L28,1.5L35.1,2l2.3,0.1l5.7,0.4l2.3,0.1l12,0.8l2.4,0.2l6.1,0.5l2.3,0.1c4,0.5,7.8,1,11.9,1.4
	c9.8,0.8,19.6,1.4,29.5,2.1l2.4,0.2c3.4,0.5,6.8,1.1,10.4,1.4c12.4,1.2,24.8,2.3,37.2,3.4l2.1,0.2l60.4,7l2.3,0.2
	c2.4,0.5,4.6,1,7.1,1.4c31.8,4.3,63.6,8.6,95.5,12.9c7.7,1,15.5,2,23.3,3l4.9,0.7c2.7,0.6,5.4,1.2,8.2,1.7
	c14.3,2.2,28.5,4.3,42.9,6.4l3.3,0.5l39.4,6.6l3.3,0.5l16.5,2.9l2.2,0.3l3.4,0.6l3.2,0.6l12.7,2.2l2.1,0.4
	c7.8,1.6,15.5,3.2,23.5,4.7c5.5,1,11.3,1.8,17,2.7l0,0l1.6,0.3l3.3,0.6l3.3,0.7l3.2,0.6l16.8,3.2l5.9,1.2l11.4,2.2l2.1,0.3l3.3,0.7
	l3.2,0.6l32.8,6.6l4.8,0.9l1.6,0.4c0.4,0,0.7,0.1,1.1,0.2l3.3,0.7l3.2,0.6l4.9,1l7.4,1.5l3.3,0.7l2,0.4L654.1,92.6z"/>
<path class="st1" d="M621.8,132.3c13.5-1.4,26.9-2.8,40.3-4.3c0.9-0.1,7.7-1.7,8.4-2.1c2.1,0.2-2,1.3,0.1,1.2
	c7.1-0.9,14.2-2,21.1-3.2c3-0.5,5.8-1.3,8.7-2c12.4-1.9,25-3.8,37.3-5.9c6.9-1.2,13.4-2.8,20-4.3l2.7-0.1c0,0.2,0,0.4,0,0.6l-24.4,6
	c-7.4,1.8-14.8,3.6-22.2,5.4c-8.3,1.3-16.7,2.6-24.9,4.1c-2.4,0.5-4.8,1.2-7.2,2c-13.3,0.9-24.9,3.6-37.6,5.9l9.7,2.5h-0.6l-0.3-0.2
	c-0.4,0-0.8,0-1.2-0.1c-12.1-2.7-22.7,0-33.5,1.6c-83.7,12.4-169.5,20.1-259,19c-88.6-1.1-171.4-10.6-246.8-30.2
	c-0.9-0.2-1.9-0.5-2.9-0.7c-6.8-2-13.6-4-20.4-6c-26-7.3-51.3-16.9-75.7-28.5c-4.4-2.1-8.9-4.2-13.4-6.4V1.1C2.9,3.2,6,5.3,9,7.5
	c12.7,8.9,24,18.3,38.3,26.7c17.8,10.5,38,20.4,57.4,30.5c3.2,1.7,7.5,2.9,11.3,4.4c0.7,0.7,1.5,1.4,2.5,1.9
	c12.9,5.4,25.6,10.9,39.1,16c10.3,4,21.3,7.6,32.7,11.1c15.6,4.7,31.6,9.3,47.8,13.6c7.3,2,15.5,3.5,23.2,5.2
	c7.2,1.7,14.3,3.5,21.7,5c32.8,6.5,65.9,11.3,99.2,14.2c59.7,5.5,119.9,5.8,180.2,2c18.1-1.2,36-3.1,54-4.7L621.8,132.3z"/>
<path class="st2" d="M681.7,129.5c2.4-0.8,4.8-1.5,7.2-2c8.2-1.4,16.6-2.7,24.9-4.1c2.3,0.3,4.5,0.8,6.9,1c27,2.5,53.8,5.4,81,7.2
	c27.7,1.9,55.7,3.3,83.6,3.6c30,0.3,60.3-0.2,90.2-1.6c29.3-1.3,58.6-3.6,87.3-6.4c48.3-4.7,94-12.4,138.1-21.8
	c5.8-1.2,11.4-2.6,18.6-4.3l-10.1-2.5l-11.3-3.5l-2.1-0.5l-3.4-1l-13.2-3.4l-4.1-1.1h-0.5l-3.6-1l-2.6-0.6l-7.9-1.8l-6.8-1.5
	l-1.2-0.3l-3.2-0.4l-3.6-1l-1.8-0.1l-4.8-1.1l-14.8-2.6l-2.7-0.5l-3.1-0.2l-8.8-1.6l-5.9-0.6l-7.6-1.3l-2.6-0.3l-6.7-0.9l-2.6-0.3
	l-2.8-0.3l-7.9-0.8l-6.7-0.7l-5.3-0.4l-2.8-0.3l-2.7-0.2l-5.3-0.5l-4-0.1l-4-0.3l-4-0.2l-14.7-0.7l-13.2-0.4l-18.7-0.4h-10.7
	l-21.3,0.5l-8,0.2L938.2,70l-4.1,0l-4.3,0.3l-5.3,0.2l-4,0.4l-4,0.2l-4,0.4l-2.7,0.2l-9.4,0.8l-4,0.3l-2.7,0.3l-2.7,0.2l-2.7,0.3
	l-6.6,0.7l-2.8,0.4l-3.9,0.3l-7.1,1l-11.7,1.4L851,78l-2.8,0.4l-8.8,1.6l-7,0.7l-4,0.6l-2.8,0.4l-18.5,3h-2.4l-2.9-1.1
	c50.4-10.4,101.2-18.2,152.4-23.3c64.6-6.4,129.7-8.4,195.6-3.3c47.3,3.7,91.3,10.7,131.7,21.5c1.8,0.5,3.9,0.8,5.9,1.2l5.2,2.3
	c6.3-2,12.3-3.9,18-5.8c9.7-3.4,19.2-6.9,28.8-10.3l2.6-1.3c0.2-0.2,0.6-0.3,0.9-0.4l3.1-1.1l0,0l12-4.9l3.8-0.6
	c-1.4,1.1-2.4,2.3-4.4,3.2c-10.4,4.6-20.9,9.2-31.7,13.7c-7.7,3.2-15.9,6.3-24.3,9.6c24.6,7.8,46.3,16.3,64.6,26.2v66.4
	c-1.5-1-3.1-2-4.4-3c-30.7-24.5-70.4-46.2-120.4-64.6c-7.8-2.9-7.7-2.9-16.2-0.5c-42.4,11.9-85.5,21.6-129,28.8
	c-1.6,0.3-3.3,0.3-5,0.5c2-0.5,3.8-1.2,5.9-1.6c19.7-4,39.9-7.5,59-11.9c23.2-5.3,45.4-11.3,68-17c2-0.5,4.3-0.9,6.4-1.3l-2.4-1.4
	C1055.7,150.5,873.8,159.6,681.7,129.5z"/>
<path class="st2" d="M0,86.7c4.5,2.1,9,4.2,13.4,6.4c24.4,11.6,49.7,21.2,75.7,28.5c6.8,2,13.6,4,20.4,6c-23.4,3.1-46.9,6-70.1,9.3
	c-11.9,1.7-23.4,3.9-35,5.9C3,143,1.5,143.1,0,143.3L0,86.7z"/>
<path class="st3" d="M1366.1,110.3c-18.3-9.9-40.1-18.5-64.6-26.2c8.5-3.3,16.6-6.4,24.3-9.6c10.8-4.5,21.3-9.1,31.7-13.7
	c2-0.9,2.9-2.1,4.4-3.2l4.2-1.6V110.3z"/>
<path class="st4" d="M1366.1,56l-4.2,1.6l-3.8,0.6h-2.6l1-1.3l0.1,0.2l1.4-0.6h-0.1l1.4-0.6h-0.1l1.4-0.6h-0.4
	c0-0.1-0.1-0.1-0.1-0.2l5.9,0.2L1366.1,56z"/>
<path class="st0" d="M1209.4,98.8l10.1,2.5c-7.2,1.7-12.8,3.1-18.6,4.3c-44.1,9.3-89.8,17.1-138.1,21.8c-28.8,2.8-58,5.1-87.3,6.4
	c-29.9,1.4-60.2,1.9-90.2,1.6c-28-0.3-56-1.8-83.6-3.6c-27.2-1.8-54-4.7-81-7.2c-2.4-0.2-4.6-0.7-6.9-1c7.4-1.8,14.8-3.6,22.2-5.4
	l24.4-6l16.2,2h0.6l0.5-0.1l1.4,0.1l-0.3,0.1l0.1,0.1l4.6,0.7l3.6,0.1l2.5,0.3l8.2,0.9l5.3,0.6l5.1,0.8l8.3,0.8l2.4,0.3l3.5,0.4
	l3.5,0.3l4.3,0.5l2.4-0.1l3.6,0.6l4.3,0.3l2.4,0.2l3,0.2l5,0.4l4.8,0.4l3.6,0.2l2.7,0.1l5.4,0.4l2.6,0.1l5.4,0.4l4,0.2l6.7,0.3
	l7.1,0.4l6.2,0.2l5.3,0.2l8,0.3l13.3,0.3l10.8-0.1l25.3,0.1l8.1-0.1l4,0l3.4,0l11.6-0.1l7.7-0.3l5.3-0.1l7.5-0.3l7.5-0.5l6.4-0.3
	l4.3-0.3l5-0.3l2.6-0.1l2.7-0.5l2.7-0.2l5-0.1l6-0.5l3.7-0.3l3-0.2l3.7-0.3l2.7-0.2l2.1-0.2l3.2-0.3l2.2-0.2l3.1-0.4l2.3-0.2
	l4.7-0.5l2.4-0.2l6.6-0.7l5.2-0.6l5.8-0.7l6.4-1l0.6,0.1h0.7l1.5-0.2l4.8-0.6l3.4-0.5l4.6-0.6l15.4-2.2l3.3-0.5l7.3-1.2l19.8-3.3
	l2.9-0.5l11.8-2.5l5.4-1l2.7-0.5l2.7-0.5l6.5-1.4L1209.4,98.8z"/>
<path class="st0" d="M1356.5,56.9l-1,1.3l-9.4,4.9l0,0l-3.1,1.1c-0.3,0-0.6,0.1-0.9,0.4l-2.6,1.3c-9.6,3.4-19.1,6.9-28.8,10.3
	c-5.7,2-11.7,3.8-18,5.8l-5.2-2.3c16.5-5.4,33-10.8,49.4-16.3c5.7-1.9,10.9-4,16.4-6C1354.3,57.1,1355.4,57,1356.5,56.9z"/>
<path class="st5" d="M776.6,113.6l-11.2-1.4l17.1-3.7l3.6,2l-7,0.6v3l-1.4-0.1L776.6,113.6z"/>
<path class="st6" d="M619.4,85.5l-32.8-6.6L619.4,85.5z"/>
<path class="st5" d="M1024.5,68.9l14.7,0.7c-0.9,2.1-5.2,2.6-8.8,2.1C1028,71.5,1026.5,69.9,1024.5,68.9z"/>
<path class="st5" d="M1209.4,98.8l-7.4,1.6c-0.9-1-1.9-1.9-2.7-2.9c-0.5-0.7-0.9-1.4-1.2-2.2L1209.4,98.8z"/>
<path class="st5" d="M807.2,84.6l18.5-3c-2.3,0.8-4.5,1.6-7,2.3s-5.1,1-8.7,1.6L807.2,84.6z"/>
<path class="st5" d="M960.5,68.7l21.3-0.5c-0.7,0.4-1.4,0.7-2.2,0.9c-5.2,0.3-10.5,0.5-15.8,0.6C962.7,69.5,961.6,69.2,960.5,68.7z"
	/>
<path class="st6" d="M688.8,99.7l-22-4.6L688.8,99.7z"/>
<path class="st5" d="M992.5,68.2l18.7,0.4C1004.9,69.3,998.6,70,992.5,68.2z"/>
<path class="st5" d="M788.3,106.9l6.6-1l4.3,1.1c-4.6,1.6-9,1.3-13.5,0.5L788.3,106.9z"/>
<path class="st5" d="M938.2,70l14.3-1.1C949.1,72.4,943.1,69.9,938.2,70z"/>
<path class="st6" d="M560.7,73.9l-16.8-3.2L560.7,73.9z"/>
<path class="st5" d="M969.9,125.2l-8.1,0.1l3.9-1.8L969.9,125.2z"/>
<path class="st5" d="M936.5,125.2l-10.8,0.1l-0.6-0.6c1.5-0.4,3-0.8,4.5-1C932.8,123.4,936.6,122.9,936.5,125.2z"/>
<path class="st6" d="M755.3,111.3l-13.9-2.3L755.3,111.3z"/>
<path class="st6" d="M1139.6,111.7l-15.4,2.2L1139.6,111.7z"/>
<path class="st6" d="M578,77.2L566.6,75L578,77.2z"/>
<path class="st5" d="M832.5,120l-2.4,0.1l-2.9-0.9l2.9-1.9l1.9,0.2C832.1,118.4,832.3,119.2,832.5,120z"/>
<path class="st6" d="M708.8,103.5l-11.5-2.1L708.8,103.5z"/>
<path class="st5" d="M1096.6,74.9l7.6,1.3C1101.1,76.3,1096.7,77.7,1096.6,74.9z"/>
<path class="st5" d="M839.5,79.9l8.8-1.6C848.1,81.4,842.2,79.2,839.5,79.9z"/>
<path class="st5" d="M868.1,75.9l7.1-1l-7.2,1.4l1.6,0.9L868.1,75.9z"/>
<path class="st5" d="M1077.6,119.4l-2.3,0.2l-2.2-0.3l-0.5-0.3c1.7-2.2,4.4-1.5,7.2-0.4L1077.6,119.4z"/>
<path class="st5" d="M900.4,72.4l9.4-0.8C906.9,73.1,903.6,73.4,900.4,72.4z"/>
<path class="st5" d="M803,117l-5.3-0.6l1-2.1L803,117z"/>
<path class="st5" d="M1160.8,86l7.9,1.8C1164,88.7,1162.5,87.3,1160.8,86z"/>
<path class="st6" d="M664.7,94.8l-8.6-1.9L664.7,94.8z"/>
<path class="st5" d="M1032.6,123l-5,0.3l-1.7-0.4c1.1-3.7,4.9,0.1,7.1-0.5L1032.6,123z"/>
<path class="st5" d="M1110.1,76.7l8.8,1.6L1110.1,76.7z"/>
<path class="st6" d="M816.4,118.7l-8.3-0.8L816.4,118.7z"/>
<path class="st5" d="M1066.7,120.5l-2.1,0.2c0.1-0.1,0.1-0.4,0-0.5l1.9-1.5l2.1,1.1L1066.7,120.5z"/>
<path class="st6" d="M1016.9,123.9l-7.5,0.5L1016.9,123.9z"/>
<path class="st6" d="M892.9,124.4l-7.1-0.4L892.9,124.4z"/>
<path class="st5" d="M1087.3,73.7l6.7,0.9L1087.3,73.7z"/>
<path class="st6" d="M1091.3,118l-6.6,0.7L1091.3,118z"/>
<path class="st5" d="M1067.3,71.6l6.7,0.7L1067.3,71.6z"/>
<path class="st6" d="M1150.3,110.1l-7.3,1.2L1150.3,110.1z"/>
<path class="st6" d="M734.2,107.9l-6.1-1.1L734.2,107.9z"/>
<path class="st5" d="M851.1,77.9l5.3-0.6C855.7,79,853.5,78.7,851.1,77.9z"/>
<path class="st5" d="M1195.5,101.8l-2.7,0.5v-2l1.6-0.1L1195.5,101.8z"/>
<path class="st5" d="M1051.3,70.4l5.3,0.5L1051.3,70.4z"/>
<path class="st6" d="M904.5,124.7l-5.3-0.2L904.5,124.7z"/>
<path class="st6" d="M1001.9,124.6l-5.3,0.1L1001.9,124.6z"/>
<path class="st5" d="M976.8,124.8c0,0.1,0.2,0.3,0.4,0.3l-3.4,0l0.7-1.9h1.2C976.1,123.7,976.5,124.3,976.8,124.8z"/>
<path class="st5" d="M1175.3,89.4l4.1,1.1C1175.2,92,1175.5,90.5,1175.3,89.4z"/>
<path class="st5" d="M1190.1,102.8l-5.4,1L1190.1,102.8z"/>
<path class="st6" d="M1051.6,121.7l-6,0.5L1051.6,121.7z"/>
<path class="st6" d="M638.2,89.2l-4.9-1L638.2,89.2z"/>
<path class="st6" d="M879.1,123.6l-4-0.2L879.1,123.6z"/>
<path class="st5" d="M912.5,71.4l4-0.4L912.5,71.4z"/>
<path class="st5" d="M1139.4,81.6l4.8,1.1L1139.4,81.6z"/>
<path class="st6" d="M695.2,100.9l-4.3-0.9L695.2,100.9z"/>
<path class="st5" d="M828.4,81.2l4-0.6L828.4,81.2z"/>
<path class="st6" d="M855.6,122.2l-4.8-0.4L855.6,122.2z"/>
<path class="st5" d="M920.5,70.8l4-0.4L920.5,70.8z"/>
<path class="st5" d="M1043.2,69.9l4,0.3L1043.2,69.9z"/>
<path class="st6" d="M840.4,121l-4.3-0.3L840.4,121z"/>
<path class="st5" d="M825.8,119.6l-3.5-0.3l-1.1-0.6l4.6,0.4C825.7,119.3,825.7,119.5,825.8,119.6z"/>
<path class="st5" d="M929.8,70.2l4.3-0.2L929.8,70.2z"/>
<path class="st6" d="M1025.9,123l1.7,0.4l-4.3,0.3L1025.9,123z"/>
<path class="st6" d="M783.5,115l-4.6-0.7L783.5,115z"/>
<path class="st6" d="M583.4,78.2l-3.3-0.7L583.4,78.2z"/>
<path class="st6" d="M630.1,87.6l-3.3-0.7L630.1,87.6z"/>
<path class="st5" d="M1146,82.9l3.6,1L1146,82.9z"/>
<path class="st5" d="M1121.9,78.6l2.7,0.5L1121.9,78.6z"/>
<path class="st6" d="M1173,106.3l-2.9,0.5L1173,106.3z"/>
<path class="st5" d="M879.1,74.6l2.8-0.4L879.1,74.6z"/>
<path class="st5" d="M1081.9,73.1l2.8,0.3L1081.9,73.1z"/>
<path class="st5" d="M784.4,106.1l-0.5,0.1c-0.5-0.2-1.1-0.5-1.6-0.7c0.2-0.1,0.5-0.2,0.7-0.3L784.4,106.1z"/>
<path class="st5" d="M888.5,73.5l2.7-0.3L888.5,73.5z"/>
<path class="st5" d="M893.8,73l2.7-0.3L893.8,73z"/>
<path class="st5" d="M1059.3,71l2.8,0.3L1059.3,71z"/>
<path class="st5" d="M789.6,115.5l-2.5-0.3l1.4-0.8L789.6,115.5z"/>
<path class="st6" d="M1119.6,114.5l-3.4,0.5L1119.6,114.5z"/>
<path class="st6" d="M540.7,70.1l-3.3-0.7L540.7,70.1z"/>
<path class="st6" d="M648.8,91.4l-3.3-0.7L648.8,91.4z"/>
<path class="st6" d="M845.8,121.4l-3-0.2L845.8,121.4z"/>
<path class="st6" d="M1058.3,121.2l-3,0.2L1058.3,121.2z"/>
<path class="st6" d="M474.1,57.9l-3.4-0.6L474.1,57.9z"/>
<path class="st5" d="M1040.6,122.3l-2.7,0.2l1.4-0.9L1040.6,122.3z"/>
<path class="st6" d="M861.8,122.5l-2.7-0.1L861.8,122.5z"/>
<path class="st6" d="M869.8,123l-2.6-0.1L869.8,123z"/>
<path class="st6" d="M1032.6,123l0.4-0.5l2.2,0.4L1032.6,123z"/>
<path class="st6" d="M654.1,92.6l-3.2-0.8L654.1,92.6z"/>
<path class="st5" d="M1171.3,88.4l3.6,1L1171.3,88.4z"/>
<path class="st5" d="M1192.6,93.9l3.4,1L1192.6,93.9z"/>
<path class="st6" d="M1111.4,115.6l-1.5,0.2c0-0.2,0.1-0.4,0.2-0.5L1111.4,115.6z"/>
<path class="st5" d="M1110.1,115.3c-0.1,0.1-0.2,0.3-0.2,0.5h-0.7l-0.6-0.1L1110.1,115.3z"/>
<path class="st6" d="M736.8,108.3l-1.5-0.3L736.8,108.3z"/>
<path class="st7" d="M1359.3,55.9l-1.4,0.6L1359.3,55.9z"/>
<path class="st5" d="M1152.8,84.2l1.2,0.3L1152.8,84.2z"/>
<path class="st7" d="M1360.7,55.4l-1.4,0.6L1360.7,55.4z"/>
<path class="st7" d="M1358,56.5l-1.4,0.6L1358,56.5z"/>
<path class="st6" d="M534.1,68.8l-1.6-0.3L534.1,68.8z"/>
<path class="st6" d="M625.8,86.7l-1.6-0.4L625.8,86.7z"/>
<path class="st0" d="M681.7,129.5c192.2,30,374.1,21,546.3-24.9l2.4,1.4c-2.1,0.4-4.4,0.8-6.4,1.3c-22.6,5.7-44.8,11.7-68,17
	c-19.1,4.4-39.3,7.9-59,11.9c-2.1,0.4-4,1.1-5.9,1.6l-2.2,0.4l-1.7,0.3l-3.1,0.4l-12.8,2l-1.8,0.2l-2.1,0.4l-7.6,1.1l-3.1,0.4l0,0
	l-9.5,1.3c-27.3,2.8-54.4,6.1-82,8.2c-98.2,7.4-194.1,2.8-287.8-10.9c-7.9-1.1-15.7-2.5-23.5-3.8l-9.7-2.5
	C656.8,133.2,668.3,130.5,681.7,129.5z"/>
<path class="st8" d="M1071.2,141.1l12.8-2L1071.2,141.1z"/>
<path class="st8" d="M1047.1,144.5l9.5-1.3L1047.1,144.5z"/>
<path class="st8" d="M1056.5,143.2l3.1-0.4L1056.5,143.2z"/>
<path class="st9" d="M651.6,137.8c0.4,0.1,0.8,0.1,1.2,0.1L651.6,137.8z"/>
<path class="st8" d="M1087.1,138.7l1.7-0.3L1087.1,138.7z"/>
<path class="st8" d="M1067.3,141.7l2.1-0.4L1067.3,141.7z"/>
<path class="st2" d="M261.3,116.9c-7.8-1.7-15.9-3.2-23.2-5.2c-16.2-4.4-32.2-8.9-47.8-13.6c-11.3-3.5-22.3-7.2-32.7-11.1
	c-13.4-5.1-26.1-10.6-39.1-16c-0.9-0.5-1.7-1.1-2.5-1.9h12h2.7l21.3,0.5l4.1,0.5l31.9,1.2l2.7,0.1l8,0.5l4.1,0.5l5.2,0.1l2.8,0.5
	c18.5,1.4,37.1,2.5,55.4,4.2c43.8,4,86.4,9.4,128.9,15.3c50.3,7,99.1,15.4,147.6,24.1c24.2,4.4,47.5,9.4,71.3,14.2l7.7,1.5l-5.4,1.1
	c-2-0.3-4-0.8-6.2-1c-20.5-2.3-41-4.8-61.6-6.8c-86-8.3-172.5-11.5-258.9-9.5C280.2,116.2,270.7,116.6,261.3,116.9z"/>
<path class="st2" d="M700.4,121.8c-2.9,0.7-5.6,1.5-8.7,2c-7,1.2-14,2.3-21.1,3.2c-2.1,0.1-4.2,0-6.3-0.3
	c-20.1-3.6-40.1-7.3-60.3-10.8c-23.9-4.1-47.9-8-72.1-11.9c-22-3.5-44.1-6.9-66.4-10.2c-13.1-1.9-26.5-3.4-39.8-5.1
	c0-0.4-0.1-0.7-0.1-1.1c31.2,3.3,62.6,6.3,93.6,9.9c30,3.5,59.7,7.4,89.4,11.3c27.8,3.7,55.4,7.7,83,11.6L700.4,121.8z"/>
<path class="st2" d="M425.5,87.8c0,0.4,0.1,0.7,0.1,1.1l-23.1-2.7l0.8-1.1L425.5,87.8z"/>
<path class="st10" d="M156.2,70.1l-4.1-0.5L156.2,70.1z"/>
<path class="st11" d="M202.9,72.4l-4.1-0.5L202.9,72.4z"/>
<path class="st11" d="M210.9,72.9l-2.8-0.5L210.9,72.9z"/>
<path class="st11" d="M190.8,71.4l-2.7-0.1L190.8,71.4z"/>
<path class="st10" d="M130.7,69.2h-2.7H130.7z"/>
<path class="st12" d="M1346.1,63.1l9.4-4.9h2.6L1346.1,63.1z"/>
<path class="st12" d="M1339.5,65.8l2.6-1.3L1339.5,65.8z"/>
<path class="st12" d="M1343,64.2l3.1-1.1L1343,64.2z"/>
<path class="st13" d="M776.6,113.6l1.1,0.4l-0.5,0.1h-0.6C776.6,114,776.6,113.8,776.6,113.6z"/>
</svg>
